<?xml version="1.0" encoding="utf-8"?>
<!-- Generator: Adobe Illustrator 15.0.0, SVG Export Plug-In . SVG Version: 6.00 Build 0)  -->
<!DOCTYPE svg PUBLIC "-//W3C//DTD SVG 1.1//EN" "http://www.w3.org/Graphics/SVG/1.1/DTD/svg11.dtd">
<svg version="1.1" id="Calque_1" xmlns="http://www.w3.org/2000/svg" xmlns:xlink="http://www.w3.org/1999/xlink" x="0px" y="0px"
	 width="120px" height="120px" viewBox="20 20 100 100" enable-background="new 0 0 140.125 144" xml:space="preserve">
<path fill="#40539A" d="M122.458,112.328c0,6.262-5.077,11.338-11.338,11.338H33.797c-6.262,0-11.338-5.077-11.338-11.338V35.004
	c0-6.262,5.077-11.338,11.338-11.338h77.323c6.262,0,11.338,5.077,11.338,11.338V112.328z"/>
<path fill="#98D3D9" d="M105.055,38.59c-4.972,0-9.017,4.046-9.017,9.018c0,2.354,0.914,4.493,2.396,6.101L86.431,73.792
	c-1.002-0.386-2.087-0.606-3.225-0.606c-3.299,0-6.182,1.787-7.754,4.438l-5.73-3.717c0.254-0.833,0.393-1.714,0.393-2.629
	c0-4.972-4.045-9.017-9.018-9.017c-4.972,0-9.018,4.045-9.018,9.017c0,1.96,0.636,3.771,1.702,5.252l-9.362,11.591
	c-1.301-0.729-2.797-1.149-4.392-1.149c-4.972,0-9.018,4.045-9.018,9.017c0,4.972,4.045,9.018,9.018,9.018
	c4.973,0,9.018-4.046,9.018-9.018c0-2.254-0.837-4.311-2.208-5.894l9.183-11.37c1.448,0.989,3.195,1.571,5.077,1.571
	c2.938,0,5.543-1.419,7.191-3.6l6.049,3.924c-0.092,0.515-0.148,1.042-0.148,1.583c0,4.972,4.045,9.018,9.017,9.018
	c4.973,0,9.019-4.045,9.019-9.018c0-2.716-1.212-5.149-3.118-6.804l11.825-19.783c1.237,0.641,2.638,1.008,4.125,1.008
	c4.973,0,9.018-4.045,9.018-9.017C114.073,42.636,110.028,38.59,105.055,38.59z M40.027,101.886c-3.251,0-5.896-2.645-5.896-5.896
	c0-3.251,2.645-5.896,5.896-5.896c3.251,0,5.896,2.645,5.896,5.896C45.923,99.241,43.278,101.886,40.027,101.886z M61.096,77.175
	c-3.251,0-5.896-2.645-5.896-5.897c0-3.251,2.645-5.896,5.896-5.896s5.896,2.645,5.896,5.896
	C66.993,74.53,64.348,77.175,61.096,77.175z M83.206,88.1c-3.251,0-5.896-2.645-5.896-5.896c0-3.252,2.645-5.897,5.896-5.897
	c3.252,0,5.897,2.645,5.897,5.897C89.103,85.455,86.458,88.1,83.206,88.1z M105.055,53.504c-3.251,0-5.896-2.645-5.896-5.896
	s2.645-5.896,5.896-5.896c3.251,0,5.896,2.645,5.896,5.896S108.307,53.504,105.055,53.504z"/>
</svg>
